<?xml version="1.0" encoding="UTF-8"?>
<svg xmlns="http://www.w3.org/2000/svg" width="63.80mm" height="18.36mm" viewBox="0 0 63.797 18.355">
<!-- CaseBuilder merch concept 1 · earmuffs-black_cup_lockup · PRINT FILE · 64 x 18 mm · all text outlined · transparent, white = white ink -->
<g transform="translate(0.000 0.000) scale(0.15830)">
<path fill="#0393D1" d="M48.5610,73.0985 C45.5320,75.2505 41.8410,76.5295 37.8520,76.5295 C27.6230,76.5295 20.4310,68.2025 20.4310,57.9735 C20.4310,47.7455 27.6230,39.4185 37.8520,39.4185 C41.8420,39.4185 45.5320,40.6975 48.5620,42.8495 L65.3940,30.4095 C58.3350,23.3565 48.5940,18.9875 37.8520,18.9875 C16.3570,18.9875 0.0000,36.4785 0.0000,57.9735 C0.0000,79.4685 16.3570,96.9605 37.8520,96.9605 C48.5930,96.9605 58.3340,92.5915 65.3929,85.5395 L48.5610,73.0985 Z"/>
<path fill="#FFFFFF" d="M150.4028,55.9720 C156.2248,51.2300 160.3638,42.4180 160.3638,34.0980 C160.3638,15.2960 145.0668,0.0000 126.2728,0.0000 L81.1537,0.0000 L81.1537,47.7580 L38.9598,47.7580 C33.3198,47.7580 29.3628,52.3340 29.3628,57.9740 C29.3628,63.6140 33.3198,68.1890 38.9598,68.1890 L81.1537,68.1890 L81.1537,115.9480 L130.1428,115.9480 C148.9448,115.9480 164.2408,100.6510 164.2408,81.8560 C164.2408,72.2260 158.4628,62.5490 150.4028,55.9720 Z M139.9328,34.0980 C139.9328,41.6330 133.8078,47.7580 126.2728,47.7580 L104.3647,47.7580 L104.3647,20.4310 L126.2728,20.4310 C133.8078,20.4310 139.9328,26.5630 139.9328,34.0980 Z M130.1428,95.5170 L104.3647,95.5170 L104.3647,68.1890 L126.2728,68.1890 C134.2728,68.1890 143.8098,70.5640 143.8098,81.8560 C143.8098,89.3920 137.6778,95.5170 130.1428,95.5170 Z"/>
</g>
<rect x="29.120" y="-0.918" width="0.500" height="20.191" rx="0" fill="#FFFFFF"/>
<path fill="#FFFFFF" d="M33.990857142857145 4.857524707624415H34.41142857142857Q34.434285714285714 4.857524707624415 34.45028571428571 4.873524707624415Q34.46628571428572 4.889524707624415 34.46628571428572 4.912381850481557V8.002667564767272Q34.46628571428572 8.025524707624415 34.45028571428571 8.041524707624415Q34.434285714285714 8.057524707624415 34.41142857142857 8.057524707624415H33.990857142857145Q33.968 8.057524707624415 33.952 8.041524707624415Q33.936 8.025524707624415 33.936 8.002667564767272V5.844953279052986Q33.936 5.826667564767272 33.926857142857145 5.826667564767272Q33.91771428571429 5.826667564767272 33.90857142857143 5.840381850481558L33.51085714285715 6.562667564767272Q33.488 6.599238993338701 33.46971428571429 6.599238993338701Q33.45142857142857 6.599238993338701 33.42857142857143 6.562667564767272L33.030857142857144 5.840381850481558Q33.02171428571429 5.826667564767272 33.012571428571434 5.826667564767272Q33.00342857142857 5.826667564767272 33.00342857142857 5.844953279052986V8.002667564767272Q33.00342857142857 8.025524707624415 32.98742857142857 8.041524707624415Q32.971428571428575 8.057524707624415 32.948571428571434 8.057524707624415H32.528Q32.50514285714286 8.057524707624415 32.48914285714286 8.041524707624415Q32.47314285714286 8.025524707624415 32.47314285714286 8.002667564767272V4.912381850481557Q32.47314285714286 4.889524707624415 32.48914285714286 4.873524707624415Q32.50514285714286 4.857524707624415 32.528 4.857524707624415H32.948571428571434Q32.994285714285716 4.857524707624415 33.01714285714286 4.894096136195843L33.46057142857143 5.675810421910129Q33.47428571428571 5.694096136195844 33.488 5.675810421910129L33.922285714285714 4.894096136195843Q33.94514285714286 4.857524707624415 33.990857142857145 4.857524707624415ZM35.202285714285715 8.002667564767272V4.912381850481557Q35.202285714285715 4.889524707624415 35.21828571428571 4.873524707624415Q35.23428571428571 4.857524707624415 35.25714285714285 4.857524707624415H35.67771428571428Q35.70057142857143 4.857524707624415 35.71657142857143 4.873524707624415Q35.732571428571426 4.889524707624415 35.732571428571426 4.912381850481557V8.002667564767272Q35.732571428571426 8.025524707624415 35.71657142857143 8.041524707624415Q35.70057142857143 8.057524707624415 35.67771428571428 8.057524707624415H35.25714285714285Q35.23428571428571 8.057524707624415 35.21828571428571 8.041524707624415Q35.202285714285715 8.025524707624415 35.202285714285715 8.002667564767272ZM36.482285714285716 8.002667564767272V4.912381850481557Q36.482285714285716 4.889524707624415 36.498285714285714 4.873524707624415Q36.51428571428571 4.857524707624415 36.537142857142854 4.857524707624415H36.95771428571428Q36.98057142857143 4.857524707624415 36.99657142857143 4.873524707624415Q37.01257142857143 4.889524707624415 37.01257142857143 4.912381850481557V7.5775247076244145Q37.01257142857143 7.600381850481558 37.03542857142857 7.600381850481558H38.02285714285714Q38.04571428571428 7.600381850481558 38.06171428571429 7.616381850481558Q38.077714285714286 7.632381850481558 38.077714285714286 7.655238993338701V8.002667564767272Q38.077714285714286 8.025524707624415 38.06171428571429 8.041524707624415Q38.04571428571428 8.057524707624415 38.02285714285714 8.057524707624415H36.537142857142854Q36.51428571428571 8.057524707624415 36.498285714285714 8.041524707624415Q36.482285714285716 8.025524707624415 36.482285714285716 8.002667564767272ZM38.63542857142857 8.002667564767272V4.912381850481557Q38.63542857142857 4.889524707624415 38.65142857142857 4.873524707624415Q38.667428571428566 4.857524707624415 38.69028571428571 4.857524707624415H39.110857142857135Q39.133714285714284 4.857524707624415 39.14971428571428 4.873524707624415Q39.16571428571428 4.889524707624415 39.16571428571428 4.912381850481557V7.5775247076244145Q39.16571428571428 7.600381850481558 39.18857142857142 7.600381850481558H40.175999999999995Q40.198857142857136 7.600381850481558 40.21485714285714 7.616381850481558Q40.23085714285714 7.632381850481558 40.23085714285714 7.655238993338701V8.002667564767272Q40.23085714285714 8.025524707624415 40.21485714285714 8.041524707624415Q40.198857142857136 8.057524707624415 40.175999999999995 8.057524707624415H38.69028571428571Q38.667428571428566 8.057524707624415 38.65142857142857 8.041524707624415Q38.63542857142857 8.025524707624415 38.63542857142857 8.002667564767272ZM40.78857142857142 8.002667564767272V4.912381850481557Q40.78857142857142 4.889524707624415 40.80457142857142 4.873524707624415Q40.82057142857142 4.857524707624415 40.84342857142856 4.857524707624415H41.26399999999999Q41.28685714285714 4.857524707624415 41.302857142857135 4.873524707624415Q41.318857142857134 4.889524707624415 41.318857142857134 4.912381850481557V8.002667564767272Q41.318857142857134 8.025524707624415 41.302857142857135 8.041524707624415Q41.28685714285714 8.057524707624415 41.26399999999999 8.057524707624415H40.84342857142856Q40.82057142857142 8.057524707624415 40.80457142857142 8.041524707624415Q40.78857142857142 8.025524707624415 40.78857142857142 8.002667564767272ZM43.57257142857142 4.857524707624415H43.99314285714285Q44.01599999999999 4.857524707624415 44.032 4.873524707624415Q44.047999999999995 4.889524707624415 44.047999999999995 4.912381850481557V8.002667564767272Q44.047999999999995 8.025524707624415 44.032 8.041524707624415Q44.01599999999999 8.057524707624415 43.99314285714285 8.057524707624415H43.57257142857142Q43.54971428571428 8.057524707624415 43.53371428571428 8.041524707624415Q43.51771428571428 8.025524707624415 43.51771428571428 8.002667564767272V5.844953279052986Q43.51771428571428 5.826667564767272 43.50857142857142 5.826667564767272Q43.49942857142857 5.826667564767272 43.490285714285704 5.840381850481558L43.092571428571425 6.562667564767272Q43.06971428571428 6.599238993338701 43.051428571428566 6.599238993338701Q43.03314285714285 6.599238993338701 43.01028571428571 6.562667564767272L42.61257142857142 5.840381850481558Q42.603428571428566 5.826667564767272 42.594285714285704 5.826667564767272Q42.58514285714285 5.826667564767272 42.58514285714285 5.844953279052986V8.002667564767272Q42.58514285714285 8.025524707624415 42.56914285714285 8.041524707624415Q42.55314285714285 8.057524707624415 42.53028571428571 8.057524707624415H42.109714285714276Q42.086857142857134 8.057524707624415 42.070857142857136 8.041524707624415Q42.05485714285714 8.025524707624415 42.05485714285714 8.002667564767272V4.912381850481557Q42.05485714285714 4.889524707624415 42.070857142857136 4.873524707624415Q42.086857142857134 4.857524707624415 42.109714285714276 4.857524707624415H42.53028571428571Q42.57599999999999 4.857524707624415 42.598857142857135 4.894096136195843L43.04228571428571 5.675810421910129Q43.05599999999999 5.694096136195844 43.06971428571428 5.675810421910129L43.50399999999999 4.894096136195843Q43.52685714285714 4.857524707624415 43.57257142857142 4.857524707624415ZM46.324571428571424 5.314667564767272H45.33714285714285Q45.31428571428571 5.314667564767272 45.31428571428571 5.337524707624414V6.201524707624415Q45.31428571428571 6.224381850481558 45.33714285714285 6.224381850481558H45.922285714285714Q45.945142857142855 6.224381850481558 45.96114285714285 6.240381850481558Q45.97714285714285 6.256381850481557 45.97714285714285 6.2792389933387005V6.631238993338701Q45.97714285714285 6.654096136195843 45.96114285714285 6.670096136195843Q45.945142857142855 6.686096136195843 45.922285714285714 6.686096136195843H45.33714285714285Q45.31428571428571 6.686096136195843 45.31428571428571 6.708953279052986V7.5775247076244145Q45.31428571428571 7.600381850481558 45.33714285714285 7.600381850481558H46.324571428571424Q46.347428571428566 7.600381850481558 46.36342857142857 7.616381850481558Q46.37942857142857 7.632381850481558 46.37942857142857 7.655238993338701V8.002667564767272Q46.37942857142857 8.025524707624415 46.36342857142857 8.041524707624415Q46.347428571428566 8.057524707624415 46.324571428571424 8.057524707624415H44.83885714285714Q44.815999999999995 8.057524707624415 44.8 8.041524707624415Q44.784 8.025524707624415 44.784 8.002667564767272V4.912381850481557Q44.784 4.889524707624415 44.8 4.873524707624415Q44.815999999999995 4.857524707624415 44.83885714285714 4.857524707624415H46.324571428571424Q46.347428571428566 4.857524707624415 46.36342857142857 4.873524707624415Q46.37942857142857 4.889524707624415 46.37942857142857 4.912381850481557V5.259810421910129Q46.37942857142857 5.282667564767272 46.36342857142857 5.298667564767272Q46.347428571428566 5.314667564767272 46.324571428571424 5.314667564767272ZM48.72457142857142 4.912381850481557V5.259810421910129Q48.72457142857142 5.282667564767272 48.708571428571425 5.298667564767272Q48.692571428571426 5.314667564767272 48.66971428571428 5.314667564767272H48.08914285714285Q48.06628571428571 5.314667564767272 48.06628571428571 5.337524707624414V8.002667564767272Q48.06628571428571 8.025524707624415 48.05028571428571 8.041524707624415Q48.03428571428571 8.057524707624415 48.01142857142857 8.057524707624415H47.59085714285714Q47.56799999999999 8.057524707624415 47.55199999999999 8.041524707624415Q47.535999999999994 8.025524707624415 47.535999999999994 8.002667564767272V5.337524707624414Q47.535999999999994 5.314667564767272 47.51314285714285 5.314667564767272H46.964571428571425Q46.941714285714276 5.314667564767272 46.92571428571428 5.298667564767272Q46.90971428571428 5.282667564767272 46.90971428571428 5.259810421910129V4.912381850481557Q46.90971428571428 4.889524707624415 46.92571428571428 4.873524707624415Q46.941714285714276 4.857524707624415 46.964571428571425 4.857524707624415H48.66971428571428Q48.692571428571426 4.857524707624415 48.708571428571425 4.873524707624415Q48.72457142857142 4.889524707624415 48.72457142857142 4.912381850481557ZM50.89142857142856 5.314667564767272H49.90399999999999Q49.88114285714285 5.314667564767272 49.88114285714285 5.337524707624414V6.201524707624415Q49.88114285714285 6.224381850481558 49.90399999999999 6.224381850481558H50.48914285714285Q50.51199999999999 6.224381850481558 50.52799999999999 6.240381850481558Q50.54399999999999 6.256381850481557 50.54399999999999 6.2792389933387005V6.631238993338701Q50.54399999999999 6.654096136195843 50.52799999999999 6.670096136195843Q50.51199999999999 6.686096136195843 50.48914285714285 6.686096136195843H49.90399999999999Q49.88114285714285 6.686096136195843 49.88114285714285 6.708953279052986V7.5775247076244145Q49.88114285714285 7.600381850481558 49.90399999999999 7.600381850481558H50.89142857142856Q50.914285714285704 7.600381850481558 50.9302857142857 7.616381850481558Q50.94628571428571 7.632381850481558 50.94628571428571 7.655238993338701V8.002667564767272Q50.94628571428571 8.025524707624415 50.9302857142857 8.041524707624415Q50.914285714285704 8.057524707624415 50.89142857142856 8.057524707624415H49.405714285714275Q49.382857142857134 8.057524707624415 49.366857142857135 8.041524707624415Q49.35085714285714 8.025524707624415 49.35085714285714 8.002667564767272V4.912381850481557Q49.35085714285714 4.889524707624415 49.366857142857135 4.873524707624415Q49.382857142857134 4.857524707624415 49.405714285714275 4.857524707624415H50.89142857142856Q50.914285714285704 4.857524707624415 50.9302857142857 4.873524707624415Q50.94628571428571 4.889524707624415 50.94628571428571 4.912381850481557V5.259810421910129Q50.94628571428571 5.282667564767272 50.9302857142857 5.298667564767272Q50.914285714285704 5.314667564767272 50.89142857142856 5.314667564767272ZM52.8022857142857 8.011810421910129 52.41371428571428 6.699810421910129Q52.404571428571415 6.681524707624415 52.39085714285713 6.681524707624415H52.148571428571415Q52.125714285714274 6.681524707624415 52.125714285714274 6.704381850481558V8.002667564767272Q52.125714285714274 8.025524707624415 52.109714285714276 8.041524707624415Q52.09371428571428 8.057524707624415 52.07085714285713 8.057524707624415H51.6502857142857Q51.62742857142856 8.057524707624415 51.61142857142856 8.041524707624415Q51.59542857142856 8.025524707624415 51.59542857142856 8.002667564767272V4.912381850481557Q51.59542857142856 4.889524707624415 51.61142857142856 4.873524707624415Q51.62742857142856 4.857524707624415 51.6502857142857 4.857524707624415H52.509714285714274Q52.75199999999999 4.857524707624415 52.937142857142845 4.974096136195843Q53.1222857142857 5.090667564767272 53.22514285714284 5.3032389933387005Q53.32799999999999 5.515810421910129 53.32799999999999 5.790096136195843Q53.32799999999999 6.073524707624415 53.2182857142857 6.2792389933387005Q53.108571428571416 6.484953279052986 52.91199999999999 6.590096136195843Q52.893714285714275 6.594667564767272 52.898285714285706 6.617524707624415L53.346285714285706 7.993524707624415Q53.35085714285713 8.002667564767272 53.35085714285713 8.016381850481558Q53.35085714285713 8.057524707624415 53.300571428571416 8.057524707624415H52.86171428571428Q52.81599999999999 8.057524707624415 52.8022857142857 8.011810421910129ZM52.125714285714274 5.337524707624414V6.2472389933387005Q52.125714285714274 6.270096136195844 52.148571428571415 6.270096136195844H52.427428571428564Q52.59199999999999 6.270096136195844 52.69485714285713 6.1420961361958435Q52.79771428571428 6.014096136195843 52.79771428571428 5.794667564767272Q52.79771428571428 5.575238993338701 52.69485714285713 5.444953279052987Q52.59199999999999 5.314667564767272 52.427428571428564 5.314667564767272H52.148571428571415Q52.125714285714274 5.314667564767272 52.125714285714274 5.337524707624414ZM54.429714285714276 8.007238993338701 53.82171428571427 4.916953279052986 53.81714285714285 4.898667564767272Q53.81714285714285 4.857524707624415 53.86742857142856 4.857524707624415H54.30628571428571Q54.361142857142845 4.857524707624415 54.365714285714276 4.9078104219101295L54.685714285714276 6.814096136195843Q54.6902857142857 6.827810421910129 54.699428571428555 6.827810421910129Q54.70857142857142 6.827810421910129 54.71314285714285 6.814096136195843L55.001142857142845 4.9078104219101295Q55.00571428571428 4.857524707624415 55.06057142857142 4.857524707624415H55.426285714285704Q55.48114285714285 4.857524707624415 55.48571428571427 4.9078104219101295L55.79657142857142 6.814096136195843Q55.80114285714285 6.827810421910129 55.810285714285705 6.827810421910129Q55.81942857142856 6.827810421910129 55.82399999999999 6.814096136195843L56.11199999999999 4.9078104219101295Q56.11657142857142 4.857524707624415 56.171428571428564 4.857524707624415H56.596571428571416Q56.65599999999999 4.857524707624415 56.64685714285713 4.916953279052986L56.066285714285705 8.007238993338701Q56.061714285714274 8.057524707624415 56.00685714285713 8.057524707624415H55.618285714285705Q55.56342857142856 8.057524707624415 55.558857142857136 8.007238993338701L55.252571428571414 6.064381850481558Q55.24799999999999 6.046096136195843 55.23885714285713 6.046096136195843Q55.22971428571427 6.046096136195843 55.22514285714285 6.064381850481558L54.941714285714276 8.007238993338701Q54.937142857142845 8.057524707624415 54.8822857142857 8.057524707624415H54.489142857142845Q54.4342857142857 8.057524707624415 54.429714285714276 8.007238993338701ZM58.79542857142856 5.314667564767272H57.807999999999986Q57.785142857142844 5.314667564767272 57.785142857142844 5.337524707624414V6.201524707624415Q57.785142857142844 6.224381850481558 57.807999999999986 6.224381850481558H58.39314285714285Q58.41599999999999 6.224381850481558 58.43199999999999 6.240381850481558Q58.447999999999986 6.256381850481557 58.447999999999986 6.2792389933387005V6.631238993338701Q58.447999999999986 6.654096136195843 58.43199999999999 6.670096136195843Q58.41599999999999 6.686096136195843 58.39314285714285 6.686096136195843H57.807999999999986Q57.785142857142844 6.686096136195843 57.785142857142844 6.708953279052986V7.5775247076244145Q57.785142857142844 7.600381850481558 57.807999999999986 7.600381850481558H58.79542857142856Q58.8182857142857 7.600381850481558 58.8342857142857 7.616381850481558Q58.850285714285704 7.632381850481558 58.850285714285704 7.655238993338701V8.002667564767272Q58.850285714285704 8.025524707624415 58.8342857142857 8.041524707624415Q58.8182857142857 8.057524707624415 58.79542857142856 8.057524707624415H57.30971428571427Q57.28685714285713 8.057524707624415 57.27085714285713 8.041524707624415Q57.254857142857134 8.025524707624415 57.254857142857134 8.002667564767272V4.912381850481557Q57.254857142857134 4.889524707624415 57.27085714285713 4.873524707624415Q57.28685714285713 4.857524707624415 57.30971428571427 4.857524707624415H58.79542857142856Q58.8182857142857 4.857524707624415 58.8342857142857 4.873524707624415Q58.850285714285704 4.889524707624415 58.850285714285704 4.912381850481557V5.259810421910129Q58.850285714285704 5.282667564767272 58.8342857142857 5.298667564767272Q58.8182857142857 5.314667564767272 58.79542857142856 5.314667564767272ZM60.7062857142857 8.011810421910129 60.317714285714274 6.699810421910129Q60.30857142857141 6.681524707624415 60.294857142857126 6.681524707624415H60.05257142857141Q60.02971428571427 6.681524707624415 60.02971428571427 6.704381850481558V8.002667564767272Q60.02971428571427 8.025524707624415 60.01371428571427 8.041524707624415Q59.997714285714274 8.057524707624415 59.974857142857125 8.057524707624415H59.5542857142857Q59.531428571428556 8.057524707624415 59.51542857142856 8.041524707624415Q59.49942857142856 8.025524707624415 59.49942857142856 8.002667564767272V4.912381850481557Q59.49942857142856 4.889524707624415 59.51542857142856 4.873524707624415Q59.531428571428556 4.857524707624415 59.5542857142857 4.857524707624415H60.41371428571427Q60.655999999999985 4.857524707624415 60.84114285714284 4.974096136195843Q61.0262857142857 5.090667564767272 61.12914285714284 5.3032389933387005Q61.231999999999985 5.515810421910129 61.231999999999985 5.790096136195843Q61.231999999999985 6.073524707624415 61.122285714285695 6.2792389933387005Q61.01257142857141 6.484953279052986 60.81599999999999 6.590096136195843Q60.79771428571427 6.594667564767272 60.8022857142857 6.617524707624415L61.2502857142857 7.993524707624415Q61.25485714285713 8.002667564767272 61.25485714285713 8.016381850481558Q61.25485714285713 8.057524707624415 61.20457142857141 8.057524707624415H60.765714285714274Q60.719999999999985 8.057524707624415 60.7062857142857 8.011810421910129ZM60.02971428571427 5.337524707624414V6.2472389933387005Q60.02971428571427 6.270096136195844 60.05257142857141 6.270096136195844H60.33142857142856Q60.49599999999999 6.270096136195844 60.59885714285713 6.1420961361958435Q60.701714285714274 6.014096136195843 60.701714285714274 5.794667564767272Q60.701714285714274 5.575238993338701 60.59885714285713 5.444953279052987Q60.49599999999999 5.314667564767272 60.33142857142856 5.314667564767272H60.05257142857141Q60.02971428571427 5.314667564767272 60.02971428571427 5.337524707624414ZM61.86285714285713 8.002667564767272V4.912381850481557Q61.86285714285713 4.889524707624415 61.87885714285713 4.873524707624415Q61.89485714285713 4.857524707624415 61.91771428571427 4.857524707624415H62.338285714285696Q62.361142857142845 4.857524707624415 62.37714285714284 4.873524707624415Q62.39314285714284 4.889524707624415 62.39314285714284 4.912381850481557V6.1740961361958435Q62.39314285714284 6.192381850481558 62.402285714285696 6.194667564767272Q62.41142857142856 6.196953279052986 62.420571428571414 6.1832389933387L63.1062857142857 4.898667564767272Q63.129142857142845 4.857524707624415 63.17485714285713 4.857524707624415H63.62742857142856Q63.659428571428556 4.857524707624415 63.66857142857141 4.8758104219101295Q63.67771428571427 4.894096136195843 63.66399999999999 4.921524707624415L62.9782857142857 6.2060961361958435Q62.97371428571427 6.224381850481558 62.97371428571427 6.233524707624415L63.7142857142857 7.993524707624415Q63.71885714285713 8.002667564767272 63.71885714285713 8.020953279052986Q63.71885714285713 8.057524707624415 63.67314285714284 8.057524707624415H63.22057142857141Q63.1702857142857 8.057524707624415 63.15657142857141 8.016381850481558L62.617142857142845 6.695238993338701Q62.612571428571414 6.681524707624415 62.60342857142855 6.683810421910129Q62.5942857142857 6.686096136195843 62.58514285714284 6.695238993338701L62.402285714285696 7.001524707624415Q62.39314285714284 7.01981042191013 62.39314285714284 7.0289532790529865V8.002667564767272Q62.39314285714284 8.025524707624415 62.37714285714284 8.041524707624415Q62.361142857142845 8.057524707624415 62.338285714285696 8.057524707624415H61.91771428571427Q61.89485714285713 8.057524707624415 61.87885714285713 8.041524707624415Q61.86285714285713 8.025524707624415 61.86285714285713 8.002667564767272Z"/>
<path fill="#FFFFFF" d="M32.432 12.185524707624415V10.649524707624415Q32.432 10.256381850481558 32.672 10.018667564767274Q32.912 9.780953279052987 33.30514285714286 9.780953279052987Q33.69828571428572 9.780953279052987 33.94057142857143 10.018667564767274Q34.182857142857145 10.256381850481558 34.182857142857145 10.649524707624415V12.185524707624415Q34.182857142857145 12.578667564767272 33.94057142857143 12.816381850481559Q33.69828571428572 13.054096136195845 33.30514285714286 13.054096136195845Q32.912 13.054096136195845 32.672 12.816381850481559Q32.432 12.578667564767272 32.432 12.185524707624415ZM33.65257142857143 12.208381850481558V10.626667564767272Q33.65257142857143 10.452953279052988 33.55657142857143 10.345524707624417Q33.46057142857143 10.238096136195844 33.30514285714286 10.238096136195844Q33.14971428571429 10.238096136195844 33.056 10.345524707624417Q32.96228571428571 10.452953279052988 32.96228571428571 10.626667564767272V12.208381850481558Q32.96228571428571 12.382096136195845 33.056 12.489524707624415Q33.14971428571429 12.596953279052988 33.30514285714286 12.596953279052988Q33.46057142857143 12.596953279052988 33.55657142857143 12.489524707624415Q33.65257142857143 12.382096136195845 33.65257142857143 12.208381850481558ZM36.605714285714285 10.754667564767272Q36.605714285714285 11.166096136195844 36.388571428571424 11.417524707624416Q36.17142857142857 11.668953279052987 35.81485714285714 11.668953279052987H35.42628571428572Q35.40342857142858 11.668953279052987 35.40342857142858 11.69181042191013V12.962667564767273Q35.40342857142858 12.985524707624416 35.38742857142857 13.001524707624416Q35.371428571428574 13.017524707624416 35.34857142857143 13.017524707624416H34.928000000000004Q34.90514285714286 13.017524707624416 34.88914285714286 13.001524707624416Q34.87314285714286 12.985524707624416 34.87314285714286 12.962667564767273V9.86781042191013Q34.87314285714286 9.844953279052987 34.88914285714286 9.828953279052987Q34.90514285714286 9.812953279052987 34.928000000000004 9.812953279052987H35.78742857142858Q36.02971428571429 9.812953279052987 36.21485714285715 9.93181042191013Q36.400000000000006 10.050667564767274 36.502857142857145 10.265524707624415Q36.605714285714285 10.480381850481558 36.605714285714285 10.754667564767272ZM36.075428571428574 10.768381850481559Q36.075428571428574 10.53981042191013 35.97257142857143 10.404953279052986Q35.86971428571429 10.270096136195844 35.70057142857143 10.270096136195844H35.42628571428572Q35.40342857142858 10.270096136195844 35.40342857142858 10.292953279052988V11.230096136195844Q35.40342857142858 11.252953279052987 35.42628571428572 11.252953279052987H35.70057142857143Q35.86971428571429 11.252953279052987 35.97257142857143 11.122667564767273Q36.075428571428574 10.992381850481559 36.075428571428574 10.768381850481559ZM38.30171428571428 12.226667564767272V12.10781042191013Q38.30171428571428 12.084953279052987 38.31771428571428 12.068953279052987Q38.33371428571428 12.052953279052987 38.35657142857143 12.052953279052987H38.772571428571425Q38.795428571428566 12.052953279052987 38.811428571428564 12.068953279052987Q38.82742857142857 12.084953279052987 38.82742857142857 12.10781042191013V12.199238993338701Q38.82742857142857 12.377524707624415 38.91657142857143 12.487238993338702Q39.005714285714284 12.596953279052988 39.14742857142857 12.596953279052988Q39.289142857142856 12.596953279052988 39.38057142857143 12.494096136195845Q39.471999999999994 12.391238993338701 39.471999999999994 12.222096136195844Q39.471999999999994 12.103238993338701 39.42171428571428 12.016381850481558Q39.37142857142857 11.929524707624417 39.279999999999994 11.85181042191013Q39.18857142857142 11.774096136195844 38.987428571428566 11.62781042191013Q38.75885714285714 11.4632389933387 38.61942857142857 11.335238993338702Q38.48 11.207238993338702 38.38628571428571 11.026667564767273Q38.29257142857143 10.846096136195843 38.29257142857143 10.608381850481559Q38.29257142857143 10.228953279052988 38.521142857142856 10.004953279052987Q38.74971428571428 9.780953279052987 39.12457142857142 9.780953279052987Q39.504 9.780953279052987 39.73714285714286 10.016381850481558Q39.97028571428571 10.251810421910129 39.97028571428571 10.640381850481559V10.750096136195843Q39.97028571428571 10.772953279052988 39.95428571428571 10.788953279052988Q39.93828571428571 10.804953279052988 39.91542857142857 10.804953279052988H39.504Q39.481142857142856 10.804953279052988 39.46514285714285 10.788953279052988Q39.44914285714285 10.772953279052988 39.44914285714285 10.750096136195843V10.631238993338702Q39.44914285714285 10.452953279052988 39.36 10.345524707624417Q39.27085714285714 10.238096136195844 39.12457142857142 10.238096136195844Q38.987428571428566 10.238096136195844 38.900571428571425 10.336381850481558Q38.81371428571428 10.434667564767272 38.81371428571428 10.608381850481559Q38.81371428571428 10.772953279052988 38.90742857142857 10.887238993338702Q39.00114285714285 11.001524707624416 39.27542857142857 11.202667564767273Q39.55428571428571 11.40838185048156 39.696 11.538667564767273Q39.837714285714284 11.668953279052987 39.91542857142857 11.824381850481558Q39.99314285714286 11.97981042191013 39.99314285714286 12.194667564767272Q39.99314285714286 12.583238993338702 39.76 12.818667564767274Q39.52685714285714 13.054096136195845 39.14742857142857 13.054096136195845Q38.767999999999994 13.054096136195845 38.534857142857135 12.825524707624417Q38.30171428571428 12.596953279052988 38.30171428571428 12.226667564767272ZM41.986285714285714 9.817524707624415H42.40228571428571Q42.42514285714286 9.817524707624415 42.44114285714286 9.833524707624415Q42.457142857142856 9.849524707624415 42.457142857142856 9.872381850481558V12.962667564767273Q42.457142857142856 12.985524707624416 42.44114285714286 13.001524707624416Q42.42514285714286 13.017524707624416 42.40228571428571 13.017524707624416H41.922285714285714Q41.876571428571424 13.017524707624416 41.86285714285714 12.97181042191013L41.181714285714285 11.033524707624416Q41.177142857142854 11.01981042191013 41.16571428571429 11.022096136195845Q41.15428571428571 11.024381850481559 41.15428571428571 11.038096136195843L41.158857142857144 12.962667564767273Q41.158857142857144 12.985524707624416 41.14285714285714 13.001524707624416Q41.12685714285714 13.017524707624416 41.104 13.017524707624416H40.687999999999995Q40.665142857142854 13.017524707624416 40.649142857142856 13.001524707624416Q40.63314285714286 12.985524707624416 40.63314285714286 12.962667564767273V9.872381850481558Q40.63314285714286 9.849524707624415 40.649142857142856 9.833524707624415Q40.665142857142854 9.817524707624415 40.687999999999995 9.817524707624415H41.158857142857144Q41.20457142857143 9.817524707624415 41.21828571428571 9.863238993338701L41.903999999999996 11.78781042191013Q41.90857142857143 11.801524707624417 41.92 11.799238993338701Q41.93142857142857 11.796953279052987 41.93142857142857 11.783238993338701V9.872381850481558Q41.93142857142857 9.849524707624415 41.947428571428574 9.833524707624415Q41.96342857142857 9.817524707624415 41.986285714285714 9.817524707624415ZM44.74742857142857 10.274667564767274H43.76Q43.73714285714286 10.274667564767274 43.73714285714286 10.297524707624415V11.161524707624416Q43.73714285714286 11.184381850481559 43.76 11.184381850481559H44.34514285714286Q44.368 11.184381850481559 44.384 11.200381850481559Q44.4 11.21638185048156 44.4 11.239238993338702V11.5912389933387Q44.4 11.614096136195844 44.384 11.630096136195844Q44.368 11.646096136195844 44.34514285714286 11.646096136195844H43.76Q43.73714285714286 11.646096136195844 43.73714285714286 11.668953279052987V12.537524707624415Q43.73714285714286 12.560381850481559 43.76 12.560381850481559H44.74742857142857Q44.77028571428571 12.560381850481559 44.78628571428571 12.576381850481559Q44.802285714285716 12.592381850481559 44.802285714285716 12.615238993338702V12.962667564767273Q44.802285714285716 12.985524707624416 44.78628571428571 13.001524707624416Q44.77028571428571 13.017524707624416 44.74742857142857 13.017524707624416H43.261714285714284Q43.23885714285714 13.017524707624416 43.222857142857144 13.001524707624416Q43.206857142857146 12.985524707624416 43.206857142857146 12.962667564767273V9.872381850481558Q43.206857142857146 9.849524707624415 43.222857142857144 9.833524707624415Q43.23885714285714 9.817524707624415 43.261714285714284 9.817524707624415H44.74742857142857Q44.77028571428571 9.817524707624415 44.78628571428571 9.833524707624415Q44.802285714285716 9.849524707624415 44.802285714285716 9.872381850481558V10.219810421910129Q44.802285714285716 10.242667564767274 44.78628571428571 10.258667564767274Q44.77028571428571 10.274667564767274 44.74742857142857 10.274667564767274ZM45.45142857142857 12.962667564767273V9.872381850481558Q45.45142857142857 9.849524707624415 45.46742857142857 9.833524707624415Q45.48342857142857 9.817524707624415 45.50628571428571 9.817524707624415H45.92685714285714Q45.949714285714286 9.817524707624415 45.965714285714284 9.833524707624415Q45.98171428571428 9.849524707624415 45.98171428571428 9.872381850481558V12.537524707624415Q45.98171428571428 12.560381850481559 46.004571428571424 12.560381850481559H46.992Q47.01485714285714 12.560381850481559 47.030857142857144 12.576381850481559Q47.04685714285714 12.592381850481559 47.04685714285714 12.615238993338702V12.962667564767273Q47.04685714285714 12.985524707624416 47.030857142857144 13.001524707624416Q47.01485714285714 13.017524707624416 46.992 13.017524707624416H45.50628571428571Q45.48342857142857 13.017524707624416 45.46742857142857 13.001524707624416Q45.45142857142857 12.985524707624416 45.45142857142857 12.962667564767273ZM48.815999999999995 9.817524707624415H49.23657142857142Q49.259428571428565 9.817524707624415 49.27542857142856 9.833524707624415Q49.29142857142857 9.849524707624415 49.29142857142857 9.872381850481558V12.962667564767273Q49.29142857142857 12.985524707624416 49.27542857142856 13.001524707624416Q49.259428571428565 13.017524707624416 49.23657142857142 13.017524707624416H48.815999999999995Q48.793142857142854 13.017524707624416 48.77714285714285 13.001524707624416Q48.76114285714285 12.985524707624416 48.76114285714285 12.962667564767273V11.668953279052987Q48.76114285714285 11.646096136195844 48.73828571428571 11.646096136195844H48.15771428571428Q48.134857142857136 11.646096136195844 48.134857142857136 11.668953279052987V12.962667564767273Q48.134857142857136 12.985524707624416 48.11885714285714 13.001524707624416Q48.10285714285714 13.017524707624416 48.07999999999999 13.017524707624416H47.65942857142856Q47.63657142857142 13.017524707624416 47.620571428571424 13.001524707624416Q47.604571428571425 12.985524707624416 47.604571428571425 12.962667564767273V9.872381850481558Q47.604571428571425 9.849524707624415 47.620571428571424 9.833524707624415Q47.63657142857142 9.817524707624415 47.65942857142856 9.817524707624415H48.07999999999999Q48.10285714285714 9.817524707624415 48.11885714285714 9.833524707624415Q48.134857142857136 9.849524707624415 48.134857142857136 9.872381850481558V11.161524707624416Q48.134857142857136 11.184381850481559 48.15771428571428 11.184381850481559H48.73828571428571Q48.76114285714285 11.184381850481559 48.76114285714285 11.161524707624416V9.872381850481558Q48.76114285714285 9.849524707624415 48.77714285714285 9.833524707624415Q48.793142857142854 9.817524707624415 48.815999999999995 9.817524707624415ZM51.58171428571428 10.274667564767274H50.594285714285704Q50.57142857142856 10.274667564767274 50.57142857142856 10.297524707624415V11.161524707624416Q50.57142857142856 11.184381850481559 50.594285714285704 11.184381850481559H51.179428571428566Q51.20228571428571 11.184381850481559 51.218285714285706 11.200381850481559Q51.234285714285704 11.21638185048156 51.234285714285704 11.239238993338702V11.5912389933387Q51.234285714285704 11.614096136195844 51.218285714285706 11.630096136195844Q51.20228571428571 11.646096136195844 51.179428571428566 11.646096136195844H50.594285714285704Q50.57142857142856 11.646096136195844 50.57142857142856 11.668953279052987V12.537524707624415Q50.57142857142856 12.560381850481559 50.594285714285704 12.560381850481559H51.58171428571428Q51.60457142857142 12.560381850481559 51.620571428571424 12.576381850481559Q51.63657142857142 12.592381850481559 51.63657142857142 12.615238993338702V12.962667564767273Q51.63657142857142 12.985524707624416 51.620571428571424 13.001524707624416Q51.60457142857142 13.017524707624416 51.58171428571428 13.017524707624416H50.09599999999999Q50.07314285714285 13.017524707624416 50.05714285714285 13.001524707624416Q50.04114285714285 12.985524707624416 50.04114285714285 12.962667564767273V9.872381850481558Q50.04114285714285 9.849524707624415 50.05714285714285 9.833524707624415Q50.07314285714285 9.817524707624415 50.09599999999999 9.817524707624415H51.58171428571428Q51.60457142857142 9.817524707624415 51.620571428571424 9.833524707624415Q51.63657142857142 9.849524707624415 51.63657142857142 9.872381850481558V10.219810421910129Q51.63657142857142 10.242667564767274 51.620571428571424 10.258667564767274Q51.60457142857142 10.274667564767274 51.58171428571428 10.274667564767274ZM52.28571428571428 12.962667564767273V9.872381850481558Q52.28571428571428 9.849524707624415 52.301714285714276 9.833524707624415Q52.317714285714274 9.817524707624415 52.340571428571415 9.817524707624415H52.76114285714284Q52.78399999999999 9.817524707624415 52.79999999999999 9.833524707624415Q52.81599999999999 9.849524707624415 52.81599999999999 9.872381850481558V12.962667564767273Q52.81599999999999 12.985524707624416 52.79999999999999 13.001524707624416Q52.78399999999999 13.017524707624416 52.76114285714284 13.017524707624416H52.340571428571415Q52.317714285714274 13.017524707624416 52.301714285714276 13.001524707624416Q52.28571428571428 12.985524707624416 52.28571428571428 12.962667564767273ZM53.56571428571428 12.962667564767273V9.872381850481558Q53.56571428571428 9.849524707624415 53.58171428571428 9.833524707624415Q53.597714285714275 9.817524707624415 53.62057142857142 9.817524707624415H54.4022857142857Q54.79542857142856 9.817524707624415 55.03085714285713 10.055238993338701Q55.26628571428571 10.292953279052988 55.26628571428571 10.690667564767272V12.144381850481558Q55.26628571428571 12.542096136195845 55.03085714285713 12.779810421910131Q54.79542857142856 13.017524707624416 54.4022857142857 13.017524707624416H53.62057142857142Q53.597714285714275 13.017524707624416 53.58171428571428 13.001524707624416Q53.56571428571428 12.985524707624416 53.56571428571428 12.962667564767273ZM54.11885714285713 12.560381850481559 54.39314285714285 12.555810421910131Q54.54399999999999 12.555810421910131 54.637714285714274 12.434667564767274Q54.73142857142856 12.313524707624415 54.73599999999999 12.112381850481558V10.722667564767272Q54.73599999999999 10.516953279052988 54.642285714285705 10.39581042191013Q54.54857142857142 10.274667564767274 54.38857142857142 10.274667564767274H54.11885714285713Q54.09599999999999 10.274667564767274 54.09599999999999 10.297524707624415V12.537524707624415Q54.09599999999999 12.560381850481559 54.11885714285713 12.560381850481559Z"/>
<rect x="32.240" y="17.658" width="10.880" height="0.500" rx="0" fill="#FFFFFF"/>
</svg>
